<?xml version="1.0" encoding="UTF-8" standalone="no"?>
<!-- Created with Inkscape (http://www.inkscape.org/) -->

<svg
   xmlns:dc="http://purl.org/dc/elements/1.1/"
   xmlns:cc="http://creativecommons.org/ns#"
   xmlns:rdf="http://www.w3.org/1999/02/22-rdf-syntax-ns#"
   xmlns:svg="http://www.w3.org/2000/svg"
   xmlns="http://www.w3.org/2000/svg"
   xmlns:sodipodi="http://sodipodi.sourceforge.net/DTD/sodipodi-0.dtd"
   xmlns:inkscape="http://www.inkscape.org/namespaces/inkscape"
   width="156.90259mm"
   height="100.73103mm"
   viewBox="0 0 156.90259 100.73103"
   version="1.1"
   id="svg38003"
   sodipodi:docname="Canal+PremierLeague.svg"
   inkscape:version="0.92.4 (5da689c313, 2019-01-14)">
  <defs
     id="defs37997">
    <clipPath
       clipPathUnits="userSpaceOnUse"
       id="clipPath99513">
      <path
         d="m 43.898,580.266 h 20.54 v 12.474 h -20.54 z"
         id="path99511"
         inkscape:connector-curvature="0" />
    </clipPath>
    <linearGradient
       x1="0"
       y1="0"
       x2="1"
       y2="0"
       gradientUnits="userSpaceOnUse"
       gradientTransform="matrix(17.519334,0,0,17.519334,45.566518,585.13121)"
       spreadMethod="pad"
       id="linearGradient99503">
      <stop
         style="stop-opacity:1;stop-color:#ac8aba"
         offset="0"
         id="stop99497" />
      <stop
         style="stop-opacity:1;stop-color:#8f569f"
         offset="0.172921"
         id="stop99499" />
      <stop
         style="stop-opacity:1;stop-color:#7f4999"
         offset="1"
         id="stop99501" />
    </linearGradient>
    <linearGradient
       x1="0"
       y1="0"
       x2="1"
       y2="0"
       gradientUnits="userSpaceOnUse"
       gradientTransform="matrix(17.52128,0,0,17.52128,45.56457,586.43704)"
       spreadMethod="pad"
       id="linearGradient99481">
      <stop
         style="stop-opacity:1;stop-color:#ac8aba"
         offset="0"
         id="stop99475" />
      <stop
         style="stop-opacity:1;stop-color:#8f569f"
         offset="0.172921"
         id="stop99477" />
      <stop
         style="stop-opacity:1;stop-color:#7f4999"
         offset="1"
         id="stop99479" />
    </linearGradient>
    <linearGradient
       x1="0"
       y1="0"
       x2="1"
       y2="0"
       gradientUnits="userSpaceOnUse"
       gradientTransform="matrix(17.513885,0,0,17.513885,45.571968,581.65133)"
       spreadMethod="pad"
       id="linearGradient99459">
      <stop
         style="stop-opacity:1;stop-color:#ac8aba"
         offset="0"
         id="stop99453" />
      <stop
         style="stop-opacity:1;stop-color:#8f569f"
         offset="0.172921"
         id="stop99455" />
      <stop
         style="stop-opacity:1;stop-color:#7f4999"
         offset="1"
         id="stop99457" />
    </linearGradient>
    <linearGradient
       x1="0"
       y1="0"
       x2="1"
       y2="0"
       gradientUnits="userSpaceOnUse"
       gradientTransform="matrix(17.517095,0,0,17.517095,45.568754,583.76179)"
       spreadMethod="pad"
       id="linearGradient99437">
      <stop
         style="stop-opacity:1;stop-color:#ac8aba"
         offset="0"
         id="stop99431" />
      <stop
         style="stop-opacity:1;stop-color:#8f569f"
         offset="0.172921"
         id="stop99433" />
      <stop
         style="stop-opacity:1;stop-color:#7f4999"
         offset="1"
         id="stop99435" />
    </linearGradient>
    <linearGradient
       x1="0"
       y1="0"
       x2="1"
       y2="0"
       gradientUnits="userSpaceOnUse"
       gradientTransform="matrix(17.515052,0,0,17.515052,45.570801,582.36896)"
       spreadMethod="pad"
       id="linearGradient99415">
      <stop
         style="stop-opacity:1;stop-color:#ac8aba"
         offset="0"
         id="stop99409" />
      <stop
         style="stop-opacity:1;stop-color:#8f569f"
         offset="0.172921"
         id="stop99411" />
      <stop
         style="stop-opacity:1;stop-color:#7f4999"
         offset="1"
         id="stop99413" />
    </linearGradient>
    <linearGradient
       x1="0"
       y1="0"
       x2="1"
       y2="0"
       gradientUnits="userSpaceOnUse"
       gradientTransform="matrix(17.516024,0,0,17.516024,45.569827,583.0718)"
       spreadMethod="pad"
       id="linearGradient99393">
      <stop
         style="stop-opacity:1;stop-color:#ac8aba"
         offset="0"
         id="stop99387" />
      <stop
         style="stop-opacity:1;stop-color:#8f569f"
         offset="0.172921"
         id="stop99389" />
      <stop
         style="stop-opacity:1;stop-color:#7f4999"
         offset="1"
         id="stop99391" />
    </linearGradient>
    <linearGradient
       x1="0"
       y1="0"
       x2="1"
       y2="0"
       gradientUnits="userSpaceOnUse"
       gradientTransform="matrix(17.518264,0,0,17.518264,45.567587,584.43996)"
       spreadMethod="pad"
       id="linearGradient99371">
      <stop
         style="stop-opacity:1;stop-color:#ac8aba"
         offset="0"
         id="stop99365" />
      <stop
         style="stop-opacity:1;stop-color:#8f569f"
         offset="0.172921"
         id="stop99367" />
      <stop
         style="stop-opacity:1;stop-color:#7f4999"
         offset="1"
         id="stop99369" />
    </linearGradient>
    <linearGradient
       x1="0"
       y1="0"
       x2="1"
       y2="0"
       gradientUnits="userSpaceOnUse"
       gradientTransform="matrix(17.520307,0,0,17.520307,45.565541,585.81098)"
       spreadMethod="pad"
       id="linearGradient99349">
      <stop
         style="stop-opacity:1;stop-color:#ac8aba"
         offset="0"
         id="stop99343" />
      <stop
         style="stop-opacity:1;stop-color:#8f569f"
         offset="0.172921"
         id="stop99345" />
      <stop
         style="stop-opacity:1;stop-color:#7f4999"
         offset="1"
         id="stop99347" />
    </linearGradient>
    <linearGradient
       x1="0"
       y1="0"
       x2="1"
       y2="0"
       gradientUnits="userSpaceOnUse"
       gradientTransform="matrix(17.522156,0,0,17.522156,45.563691,587.09876)"
       spreadMethod="pad"
       id="linearGradient99327">
      <stop
         style="stop-opacity:1;stop-color:#ac8aba"
         offset="0"
         id="stop99321" />
      <stop
         style="stop-opacity:1;stop-color:#8f569f"
         offset="0.172921"
         id="stop99323" />
      <stop
         style="stop-opacity:1;stop-color:#7f4999"
         offset="1"
         id="stop99325" />
    </linearGradient>
    <clipPath
       clipPathUnits="userSpaceOnUse"
       id="clipPath99303">
      <path
         d="m 43.898,580.266 h 20.54 v 12.474 h -20.54 z"
         id="path99301"
         inkscape:connector-curvature="0" />
    </clipPath>
  </defs>
  <sodipodi:namedview
     id="base"
     pagecolor="#ffffff"
     bordercolor="#666666"
     borderopacity="1.0"
     inkscape:pageopacity="0.0"
     inkscape:pageshadow="2"
     inkscape:zoom="0.7"
     inkscape:cx="-345.67455"
     inkscape:cy="241.50311"
     inkscape:document-units="mm"
     inkscape:current-layer="layer1"
     showgrid="false"
     inkscape:window-width="1920"
     inkscape:window-height="1017"
     inkscape:window-x="-8"
     inkscape:window-y="-8"
     inkscape:window-maximized="1"
     units="px"
     fit-margin-top="0"
     fit-margin-left="0"
     fit-margin-right="0"
     fit-margin-bottom="0" />
  <metadata
     id="metadata38000">
    <rdf:RDF>
      <cc:Work
         rdf:about="">
        <dc:format>image/svg+xml</dc:format>
        <dc:type
           rdf:resource="http://purl.org/dc/dcmitype/StillImage" />
        <dc:title></dc:title>
      </cc:Work>
    </rdf:RDF>
  </metadata>
  <g
     inkscape:label="Calque 1"
     inkscape:groupmode="layer"
     id="layer1"
     transform="translate(-72.881999,-208.4591)">
    <path
       d="M 72.881999,247.68252 H 229.78459 V 208.4591 H 72.881999 Z"
       style="fill:#0c0e10;fill-opacity:1;fill-rule:nonzero;stroke:none;stroke-width:8.95307064"
       id="path99295"
       inkscape:connector-curvature="0" />
    <g
       transform="matrix(8.9530712,0,0,-8.9530712,-335.04677,5506.4211)"
       id="g99297">
      <g
         id="g99299"
         clip-path="url(#clipPath99303)">
        <g
           id="g99305"
           transform="translate(48.3403,588.3914)">
          <path
             d="m 0,0 c -0.004,-0.03 -0.018,-0.052 -0.018,-0.052 0,0 -0.015,-0.015 -0.042,-0.021 -0.354,-0.145 -0.748,-0.097 -0.748,-0.097 -0.639,0.07 -1.046,0.461 -1.176,0.967 -0.192,0.757 0.19,1.296 0.282,1.41 0.225,0.269 0.576,0.461 0.92,0.506 0.438,0.063 0.764,-0.041 0.897,-0.085 0,0 0.148,-0.048 0.259,-0.122 0.055,-0.037 0.062,-0.052 0.062,-0.052 0,0 0.003,-0.007 -0.011,-0.066 L 0.321,1.845 C 0.317,1.823 0.303,1.812 0.303,1.812 c 0,0 -0.008,-0.003 -0.059,0.03 -0.332,0.236 -0.72,0.206 -0.72,0.206 C -0.772,2.029 -1.115,1.875 -1.219,1.483 -1.31,1.136 -1.214,0.845 -1.008,0.671 -0.867,0.55 -0.649,0.487 -0.421,0.498 c 0.252,0.018 0.451,0.118 0.436,0.111 0,0 0.011,0.003 0.023,0.007 0.051,0.026 0.062,0.023 0.062,0.023 0,0 0.011,-0.012 0.004,-0.045 z m 1.89,1.842 c 0,0 -0.004,0 -0.007,-0.007 L 1.515,0.997 C 1.507,0.985 1.51,0.978 1.51,0.978 c 0,0 0.005,-0.004 0.022,-0.004 L 2.075,0.97 c 0.004,0 0.007,0.004 0.007,0.004 0,0 0.004,0.004 0,0.014 L 1.894,1.835 c 0,0.007 -0.004,0.007 -0.004,0.007 m 6.13,0.01 c 0,0 -0.003,0 -0.007,-0.014 L 7.644,1.003 C 7.636,0.978 7.64,0.974 7.64,0.974 c 0,0 0.011,-0.007 0.019,-0.007 L 8.206,0.97 h 0.007 c 0,0 0.003,0.004 0,0.015 L 8.027,1.842 C 8.024,1.852 8.02,1.852 8.02,1.852 M 3.013,-0.093 2.356,-0.096 c -0.015,0 -0.027,0.007 -0.027,0.007 0,0 -0.004,0.003 -0.007,0.03 L 2.219,0.365 C 2.219,0.376 2.212,0.38 2.212,0.38 H 2.201 1.275 c -0.019,0 -0.029,-0.015 -0.029,-0.015 0,0 -0.016,-0.011 -0.027,-0.037 L 1.035,-0.067 C 1.027,-0.081 1.024,-0.086 1.024,-0.086 c 0,0 -0.012,-0.007 -0.023,-0.007 H 0.236 c -0.021,-0.003 -0.025,0.007 -0.025,0.007 0,0 -0.004,0.013 0.004,0.027 L 1.54,2.606 C 1.547,2.62 1.558,2.624 1.558,2.624 H 1.584 2.43 c 0.014,0 0.025,-0.011 0.025,-0.011 0,0 0.004,-0.003 0.007,-0.015 l 0.57,-2.671 c 0,-0.013 -0.008,-0.016 -0.008,-0.016 0,0 -0.003,-0.004 -0.011,-0.004 M 5.967,-0.1 H 5.291 5.269 c 0,0 -0.004,0.004 -0.007,0.007 L 4.324,1.572 C 4.316,1.58 4.313,1.58 4.313,1.58 c 0,0 -0.007,0 -0.007,-0.011 L 4.074,-0.067 C 4.069,-0.086 4.066,-0.089 4.066,-0.089 c 0,0 -0.008,-0.004 -0.019,-0.004 H 3.374 c -0.011,0 -0.017,0.007 -0.017,0.007 0,0 -0.015,0.015 -0.012,0.03 l 0.37,2.647 c 0.003,0.015 0.01,0.019 0.01,0.019 0,0 0.012,0.01 0.023,0.01 h 0.75 c 0.011,0 0.018,-0.007 0.018,-0.007 0,0 0.007,-0.003 0.011,-0.015 L 5.373,1.115 C 5.387,1.084 5.398,1.089 5.398,1.089 c 0,0 0.012,0 0.019,0.033 l 0.214,1.476 c 0,0.012 0.008,0.015 0.008,0.015 0,0 0.003,0.007 0.014,0.007 L 6.359,2.613 c 0.015,0 0.018,-0.003 0.018,-0.003 0,0 0.003,-0.004 0.003,-0.012 L 6.001,-0.071 C 5.997,-0.086 5.99,-0.096 5.99,-0.096 5.99,-0.096 5.986,-0.1 5.967,-0.1 M 9.132,-0.103 H 8.456 C 8.442,-0.112 8.43,-0.096 8.43,-0.096 c 0,0 -0.003,0.003 -0.007,0.025 L 8.335,0.346 C 8.328,0.369 8.32,0.38 8.32,0.38 c 0,0 -0.019,0.011 -0.041,0.011 H 7.4 C 7.382,0.391 7.371,0.38 7.371,0.38 c 0,0 -0.015,-0.015 -0.023,-0.037 L 7.149,-0.081 C 7.145,-0.093 7.138,-0.096 7.138,-0.096 c 0,0 -0.015,-0.004 -0.023,-0.004 H 6.354 c -0.018,-0.003 -0.025,0.007 -0.025,0.007 0,0 -0.003,0.007 0.007,0.022 L 7.677,2.606 C 7.684,2.61 7.692,2.62 7.692,2.62 c 0,0 0.007,0.004 0.029,0.004 h 0.831 c 0.019,0 0.03,-0.011 0.03,-0.011 0,0 0.004,-0.003 0.007,-0.015 l 0.557,-2.687 c 0,-0.007 -0.003,-0.011 -0.003,-0.011 0,0 0,-0.003 -0.011,-0.003 m 1.939,0.039 c -0.004,-0.022 -0.007,-0.029 -0.007,-0.029 0,0 -0.005,-0.007 -0.023,-0.007 H 9.52 c -0.045,0 -0.056,0.011 -0.056,0.011 0,0 -0.007,0.016 -0.003,0.048 L 9.838,2.58 c 0.003,0.033 0.011,0.044 0.011,0.044 h 0.039 0.692 c 0.019,0 0.026,-0.004 0.026,-0.004 0,0 0.003,-0.01 0,-0.025 L 10.321,0.546 c -0.003,-0.022 0.008,-0.025 0.008,-0.025 0,0 0.008,-0.005 0.036,-0.005 h 0.754 c 0.014,0 0.022,-0.007 0.022,-0.007 0,0 0.004,-0.004 0.004,-0.022 z m 2.928,1.038 c 0,0 -0.003,-0.007 -0.014,-0.007 h -0.946 c -0.015,0 -0.022,-0.008 -0.022,-0.008 0,0 -0.01,-0.003 -0.01,-0.022 v -1.008 c 0,-0.015 -0.008,-0.018 -0.008,-0.018 0,0 -0.004,-0.007 -0.016,-0.007 h -0.749 c -0.012,0 -0.019,0.007 -0.019,0.007 0,0 -0.003,0.003 -0.003,0.022 v 1.008 c 0,0.011 -0.011,0.018 -0.011,0.018 0,0 -0.004,0.008 -0.014,0.008 h -0.968 c -0.019,0 -0.023,0.003 -0.023,0.003 0,0 -0.007,0.008 -0.007,0.03 v 0.738 c 0,0.008 0.007,0.019 0.007,0.019 0,0 0.004,0.003 0.011,0.003 h 0.99 c 0.008,0 0.008,0.004 0.008,0.004 0,0 0.007,0.004 0.007,0.011 v 0.883 c 0,0.01 0.003,0.018 0.003,0.018 0,0 0.007,0.004 0.03,0.004 h 0.735 c 0.015,0 0.019,-0.004 0.019,-0.004 0,0 0.008,-0.008 0.008,-0.022 V 1.768 h 0.959 c 0.026,0 0.033,-0.004 0.033,-0.004 0,0 0.012,-0.004 0.012,-0.026 V 0.992 c 0,-0.007 -0.012,-0.018 -0.012,-0.018"
             style="fill:#ffffff;fill-opacity:1;fill-rule:nonzero;stroke:none"
             id="path99307"
             inkscape:connector-curvature="0" />
        </g>
      </g>
    </g>
    <g
       transform="matrix(8.9530712,0,0,-8.9530712,-335.04677,5506.4211)"
       id="g99309">
      <g
         id="g99311">
        <g
           id="g99317">
          <g
             id="g99319">
            <path
               d="m 45.563,587.367 10e-4,-0.536 17.521,0.144 v 0.392 z"
               style="fill:url(#linearGradient99327);stroke:none"
               id="path99329"
               inkscape:connector-curvature="0" />
          </g>
        </g>
      </g>
    </g>
    <g
       transform="matrix(8.9530712,0,0,-8.9530712,-335.04677,5506.4211)"
       id="g99331">
      <g
         id="g99333">
        <g
           id="g99339">
          <g
             id="g99341">
            <path
               d="m 45.565,585.893 0.001,-0.502 17.519,0.455 v 0.384 z"
               style="fill:url(#linearGradient99349);stroke:none"
               id="path99351"
               inkscape:connector-curvature="0" />
          </g>
        </g>
      </g>
    </g>
    <g
       transform="matrix(8.9530712,0,0,-8.9530712,-335.04677,5506.4211)"
       id="g99353">
      <g
         id="g99355">
        <g
           id="g99361">
          <g
             id="g99363">
            <path
               d="m 45.568,584.41 v -0.619 l 17.517,0.927 v 0.371 z"
               style="fill:url(#linearGradient99371);stroke:none"
               id="path99373"
               inkscape:connector-curvature="0" />
          </g>
        </g>
      </g>
    </g>
    <g
       transform="matrix(8.9530712,0,0,-8.9530712,-335.04677,5506.4211)"
       id="g99375">
      <g
         id="g99377">
        <g
           id="g99383">
          <g
             id="g99385">
            <path
               d="m 45.57,582.799 10e-4,-0.603 17.514,1.395 v 0.356 z"
               style="fill:url(#linearGradient99393);stroke:none"
               id="path99395"
               inkscape:connector-curvature="0" />
          </g>
        </g>
      </g>
    </g>
    <g
       transform="matrix(8.9530712,0,0,-8.9530712,-335.04677,5506.4211)"
       id="g99397">
      <g
         id="g99399">
        <g
           id="g99405">
          <g
             id="g99407">
            <path
               d="m 45.571,581.982 0.001,-0.621 17.513,1.665 v 0.35 z"
               style="fill:url(#linearGradient99415);stroke:none"
               id="path99417"
               inkscape:connector-curvature="0" />
          </g>
        </g>
      </g>
    </g>
    <g
       transform="matrix(8.9530712,0,0,-8.9530712,-335.04677,5506.4211)"
       id="g99419">
      <g
         id="g99421">
        <g
           id="g99427">
          <g
             id="g99429">
            <path
               d="m 45.569,583.591 10e-4,-0.585 17.515,1.149 v 0.363 z"
               style="fill:url(#linearGradient99437);stroke:none"
               id="path99439"
               inkscape:connector-curvature="0" />
          </g>
        </g>
      </g>
    </g>
    <g
       transform="matrix(8.9530712,0,0,-8.9530712,-335.04677,5506.4211)"
       id="g99441">
      <g
         id="g99443">
        <g
           id="g99449">
          <g
             id="g99451">
            <path
               d="m 45.572,581.141 10e-4,-0.644 17.512,2.069 v 0.24 z"
               style="fill:url(#linearGradient99459);stroke:none"
               id="path99461"
               inkscape:connector-curvature="0" />
          </g>
        </g>
      </g>
    </g>
    <g
       transform="matrix(8.9530712,0,0,-8.9530712,-335.04677,5506.4211)"
       id="g99463">
      <g
         id="g99465">
        <g
           id="g99471">
          <g
             id="g99473">
            <path
               d="m 45.564,586.657 10e-4,-0.584 17.52,0.337 v 0.391 z"
               style="fill:url(#linearGradient99481);stroke:none"
               id="path99483"
               inkscape:connector-curvature="0" />
          </g>
        </g>
      </g>
    </g>
    <g
       transform="matrix(8.9530712,0,0,-8.9530712,-335.04677,5506.4211)"
       id="g99485">
      <g
         id="g99487">
        <g
           id="g99493">
          <g
             id="g99495">
            <path
               d="m 45.566,585.205 10e-4,-0.602 17.518,0.68 v 0.377 z"
               style="fill:url(#linearGradient99503);stroke:none"
               id="path99505"
               inkscape:connector-curvature="0" />
          </g>
        </g>
      </g>
    </g>
    <g
       transform="matrix(8.9530712,0,0,-8.9530712,-335.04677,5506.4211)"
       id="g99507">
      <g
         id="g99509"
         clip-path="url(#clipPath99513)">
        <g
           id="g99515"
           transform="translate(45.572,581.1404)">
          <path
             d="M 0,0 17.514,1.665 V 1.886 L 0,0.221 Z"
             style="fill:#62467d;fill-opacity:1;fill-rule:nonzero;stroke:none"
             id="path99517"
             inkscape:connector-curvature="0" />
        </g>
        <g
           id="g99519"
           transform="translate(45.5708,581.9823)">
          <path
             d="M 0,0 17.515,1.394 V 1.608 L 0,0.214 Z"
             style="fill:#62467d;fill-opacity:1;fill-rule:nonzero;stroke:none"
             id="path99521"
             inkscape:connector-curvature="0" />
        </g>
        <g
           id="g99523"
           transform="translate(45.5697,582.7985)">
          <path
             d="M 0,0 17.516,1.149 V 1.356 L 0,0.207 Z"
             style="fill:#62467d;fill-opacity:1;fill-rule:nonzero;stroke:none"
             id="path99525"
             inkscape:connector-curvature="0" />
        </g>
        <g
           id="g99527"
           transform="translate(45.5687,583.5909)">
          <path
             d="m 0,0 17.517,0.927 v 0.2 L 0,0.2 Z"
             style="fill:#62467d;fill-opacity:1;fill-rule:nonzero;stroke:none"
             id="path99529"
             inkscape:connector-curvature="0" />
        </g>
        <g
           id="g99531"
           transform="translate(45.5675,584.4092)">
          <path
             d="M 0,0 17.518,0.68 V 0.873 L 0,0.194 Z"
             style="fill:#62467d;fill-opacity:1;fill-rule:nonzero;stroke:none"
             id="path99533"
             inkscape:connector-curvature="0" />
        </g>
        <g
           id="g99535"
           transform="translate(45.5665,585.2048)">
          <path
             d="M 0,0 17.519,0.455 V 0.641 L 0,0.187 Z"
             style="fill:#62467d;fill-opacity:1;fill-rule:nonzero;stroke:none"
             id="path99537"
             inkscape:connector-curvature="0" />
        </g>
        <g
           id="g99539"
           transform="translate(45.5655,585.8928)">
          <path
             d="m 0,0 17.52,0.338 v 0.18 L 0,0.18 Z"
             style="fill:#62467d;fill-opacity:1;fill-rule:nonzero;stroke:none"
             id="path99541"
             inkscape:connector-curvature="0" />
        </g>
        <g
           id="g99543"
           transform="translate(45.5645,586.6572)">
          <path
             d="M 0,0 17.521,0.144 V 0.318 L 0,0.173 Z"
             style="fill:#62467d;fill-opacity:1;fill-rule:nonzero;stroke:none"
             id="path99545"
             inkscape:connector-curvature="0" />
        </g>
        <g
           id="g99547"
           transform="translate(47.1121,586.0696)">
          <path
             d="m 0,0 c 0.213,0 0.324,0.088 0.324,0.258 0,0.156 -0.083,0.221 -0.284,0.221 H -0.093 L -0.15,0 Z m 0.113,0.855 c 0.23,0 0.371,-0.033 0.484,-0.113 C 0.735,0.644 0.812,0.474 0.812,0.276 0.812,0.09 0.742,-0.09 0.619,-0.221 0.484,-0.361 0.324,-0.414 0.033,-0.414 h -0.231 l -0.078,-0.611 h -0.476 l 0.23,1.88 z"
             style="fill:#ffffff;fill-opacity:1;fill-rule:nonzero;stroke:none"
             id="path99549"
             inkscape:connector-curvature="0" />
        </g>
        <g
           id="g99551"
           transform="translate(48.7269,586.0923)">
          <path
             d="m 0,0 c 0.201,0 0.339,0.095 0.339,0.238 0,0.123 -0.098,0.191 -0.274,0.191 h -0.09 L -0.085,0 Z m 0.331,-1.048 -0.449,0.745 -0.09,-0.745 h -0.476 l 0.23,1.88 h 0.612 c 0.446,0 0.664,-0.188 0.664,-0.571 0,-0.198 -0.05,-0.336 -0.165,-0.444 -0.06,-0.058 -0.11,-0.085 -0.233,-0.135 l 0.461,-0.73 z"
             style="fill:#ffffff;fill-opacity:1;fill-rule:nonzero;stroke:none"
             id="path99553"
             inkscape:connector-curvature="0" />
        </g>
        <g
           id="g99555"
           transform="translate(50.9829,586.511)">
          <path
             d="m 0,0 h -0.554 l -0.04,-0.324 h 0.534 l -0.05,-0.413 h -0.537 l -0.037,-0.316 h 0.576 L -0.16,-1.467 h -1.051 l 0.231,1.881 h 1.03 z"
             style="fill:#ffffff;fill-opacity:1;fill-rule:nonzero;stroke:none"
             id="path99557"
             inkscape:connector-curvature="0" />
        </g>
        <g
           id="g99559"
           transform="translate(52.9778,585.0442)">
          <path
             d="m 0,0 -0.022,0.842 v 0.063 c 0,0.035 0,0.068 0.002,0.103 C -0.018,1.073 -0.013,1.116 0,1.216 -0.015,1.178 -0.025,1.148 -0.033,1.128 -0.06,1.063 -0.098,0.975 -0.133,0.908 L -0.594,0 H -0.845 L -1.008,0.727 C -1.023,0.795 -1.033,0.855 -1.043,0.908 -1.058,1.003 -1.068,1.076 -1.086,1.246 -1.096,1.188 -1.106,1.146 -1.111,1.118 -1.138,0.988 -1.161,0.903 -1.186,0.815 L -1.427,0 h -0.491 l 0.594,1.88 h 0.471 L -0.71,1.246 c 0.011,-0.042 0.021,-0.098 0.033,-0.165 0.025,-0.136 0.033,-0.183 0.05,-0.329 0.015,0.043 0.028,0.075 0.035,0.095 0.005,0.011 0.013,0.031 0.028,0.063 0.02,0.05 0.037,0.083 0.045,0.101 L -0.075,1.88 H 0.416 L 0.476,0 Z"
             style="fill:#ffffff;fill-opacity:1;fill-rule:nonzero;stroke:none"
             id="path99561"
             inkscape:connector-curvature="0" />
        </g>
        <g
           id="g99563"
           transform="translate(54.1761,585.0442)">
          <path
             d="m 0,0 h -0.476 l 0.23,1.88 h 0.477 z"
             style="fill:#ffffff;fill-opacity:1;fill-rule:nonzero;stroke:none"
             id="path99565"
             inkscape:connector-curvature="0" />
        </g>
        <g
           id="g99567"
           transform="translate(55.8119,586.511)">
          <path
             d="m 0,0 h -0.554 l -0.04,-0.324 h 0.534 l -0.05,-0.413 h -0.537 l -0.038,-0.316 h 0.577 L -0.16,-1.467 h -1.051 l 0.231,1.881 h 1.03 z"
             style="fill:#ffffff;fill-opacity:1;fill-rule:nonzero;stroke:none"
             id="path99569"
             inkscape:connector-curvature="0" />
        </g>
        <g
           id="g99571"
           transform="translate(56.68,586.0923)">
          <path
             d="m 0,0 c 0.201,0 0.338,0.095 0.338,0.238 0,0.123 -0.097,0.191 -0.273,0.191 h -0.09 L -0.085,0 Z m 0.331,-1.048 -0.449,0.745 -0.09,-0.745 h -0.476 l 0.23,1.88 h 0.612 c 0.446,0 0.664,-0.188 0.664,-0.571 0,-0.198 -0.05,-0.336 -0.165,-0.444 -0.06,-0.058 -0.11,-0.085 -0.233,-0.135 l 0.461,-0.73 z"
             style="fill:#ffffff;fill-opacity:1;fill-rule:nonzero;stroke:none"
             id="path99573"
             inkscape:connector-curvature="0" />
        </g>
        <g
           id="g99575"
           transform="translate(53.5096,582.7546)">
          <path
             d="m 0,0 h -1.076 l 0.231,1.88 h 0.476 L -0.549,0.414 H 0.05 Z"
             style="fill:#ffffff;fill-opacity:1;fill-rule:nonzero;stroke:none"
             id="path99577"
             inkscape:connector-curvature="0" />
        </g>
        <g
           id="g99579"
           transform="translate(54.95,584.2214)">
          <path
             d="m 0,0 h -0.554 l -0.04,-0.324 h 0.534 l -0.05,-0.413 h -0.537 l -0.037,-0.316 h 0.576 L -0.16,-1.467 h -1.051 l 0.231,1.881 h 1.03 z"
             style="fill:#ffffff;fill-opacity:1;fill-rule:nonzero;stroke:none"
             id="path99581"
             inkscape:connector-curvature="0" />
        </g>
        <g
           id="g99583"
           transform="translate(56.1934,583.8026)">
          <path
             d="M 0,0 C -0.015,0.07 -0.025,0.11 -0.027,0.125 -0.038,0.183 -0.043,0.211 -0.053,0.283 -0.063,0.256 -0.07,0.233 -0.075,0.218 -0.093,0.165 -0.116,0.108 -0.138,0.06 L -0.313,-0.328 H 0.07 Z m 0.248,-1.048 -0.083,0.344 h -0.654 l -0.158,-0.344 h -0.526 l 0.93,1.88 h 0.536 l 0.457,-1.88 z"
             style="fill:#ffffff;fill-opacity:1;fill-rule:nonzero;stroke:none"
             id="path99585"
             inkscape:connector-curvature="0" />
        </g>
        <g
           id="g99587"
           transform="translate(58.9127,583.8002)">
          <path
             d="m 0,0 c -0.002,-0.053 -0.002,-0.093 -0.005,-0.118 -0.007,-0.105 -0.022,-0.2 -0.05,-0.296 -0.118,-0.421 -0.457,-0.669 -0.915,-0.669 -0.549,0 -0.93,0.381 -0.93,0.928 0,0.596 0.431,1.025 1.03,1.025 0.263,0 0.474,-0.078 0.632,-0.236 0.083,-0.08 0.125,-0.148 0.205,-0.313 L -0.444,0.16 c -0.052,0.106 -0.082,0.146 -0.133,0.193 -0.082,0.076 -0.185,0.116 -0.308,0.116 -0.298,0 -0.529,-0.263 -0.529,-0.609 0,-0.311 0.203,-0.53 0.494,-0.53 0.14,0 0.261,0.053 0.341,0.151 0.032,0.04 0.045,0.07 0.067,0.145 H -0.945 L -0.9,0 Z"
             style="fill:#ffffff;fill-opacity:1;fill-rule:nonzero;stroke:none"
             id="path99589"
             inkscape:connector-curvature="0" />
        </g>
        <g
           id="g99591"
           transform="translate(60.8188,583.547)">
          <path
             d="M 0,0 C -0.042,-0.354 -0.095,-0.497 -0.216,-0.617 -0.353,-0.75 -0.584,-0.83 -0.855,-0.83 c -0.486,0 -0.787,0.243 -0.787,0.637 0,0.052 0.007,0.15 0.022,0.266 l 0.126,1.015 H -1.02 L -1.146,0.073 C -1.148,0.055 -1.148,0.03 -1.151,-0.005 c -0.002,-0.03 -0.002,-0.048 -0.002,-0.065 0,-0.213 0.1,-0.309 0.323,-0.309 0.226,0 0.321,0.106 0.356,0.394 l 0.131,1.073 h 0.476 z"
             style="fill:#ffffff;fill-opacity:1;fill-rule:nonzero;stroke:none"
             id="path99593"
             inkscape:connector-curvature="0" />
        </g>
        <g
           id="g99595"
           transform="translate(62.3099,584.2214)">
          <path
             d="m 0,0 h -0.554 l -0.04,-0.324 h 0.534 l -0.05,-0.413 h -0.537 l -0.037,-0.316 h 0.576 L -0.16,-1.467 h -1.051 l 0.231,1.881 h 1.03 z"
             style="fill:#ffffff;fill-opacity:1;fill-rule:nonzero;stroke:none"
             id="path99597"
             inkscape:connector-curvature="0" />
        </g>
      </g>
    </g>
  </g>
</svg>
