<?xml version="1.0" encoding="utf-8"?>
<!-- Generator: Adobe Illustrator 25.4.1, SVG Export Plug-In . SVG Version: 6.00 Build 0)  -->
<svg version="1.1" id="Calque_1" xmlns="http://www.w3.org/2000/svg" xmlns:xlink="http://www.w3.org/1999/xlink" x="0px" y="0px"
	 viewBox="0 0 1141.6 338.9" style="enable-background:new 0 0 1141.6 338.9;" xml:space="preserve">
<style type="text/css">
	.st0{fill-rule:evenodd;clip-rule:evenodd;fill:#FEFEFE;}
	.st1{fill-rule:evenodd;clip-rule:evenodd;fill:#153C88;}
	.st2{fill-rule:evenodd;clip-rule:evenodd;fill:#6F6F6E;}
	.st3{fill-rule:evenodd;clip-rule:evenodd;fill:#D6007E;}
	.st4{enable-background:new    ;}
	.st5{fill:#FFFFFF;}
</style>
<g id="Group-29" transform="translate(3.000000, 3.000000)">
	<g id="Group-3" transform="translate(0.000000, 0.907703)">
		<g id="Clip-2">
		</g>
		<path id="Fill-1" class="st0" d="M924.9,192.4c0,16.7-13.6,30.3-30.3,30.3H27.3C10.6,222.7-3,209.1-3,192.4v-166
			C-3,9.7,10.6-3.9,27.3-3.9h867.4c16.7,0,30.3,13.6,30.3,30.3L924.9,192.4L924.9,192.4z"/>
	</g>
	<g id="Group-6" transform="translate(63.142857, 19.364846)">
		<g id="Clip-5">
		</g>
		<path id="Fill-4" class="st1" d="M1075.4,300.7c0,8.8-8.5,16-18.9,16H607.6c-10.4,0-18.9-7.2-18.9-16V190.1c0-8.8,8.5-16,18.9-16
			h448.9c10.4,0,18.9,7.2,18.9,16V300.7z"/>
	</g>
	<path id="Fill-7" class="st2" d="M402.2,148.6l4.8-6.9c3.1-4.4,6.6-4.8,11.6-2c3.5,1.8,10.4,6.7,19.9,6.7c8,0,11.6-3.4,11.6-7.7
		c0-15.5-48.4-13-48.4-47.4c0-20.2,16.9-33.6,39.1-33.6c12.7,0,24.4,4.4,29.6,8.1c4.4,3.2,4.9,7.1,2.6,11.5l-3.7,7.2
		c-3.1,6-7.2,5.1-11.5,2.9c-5.1-2.5-10.1-5.1-17.3-5.1c-8.4,0-11.9,3.4-11.9,7.7c0,15.9,48.4,12.1,48.4,46.7
		c0,18.4-13.8,34.2-38.5,34.2c-15.3,0-29-6.3-34.8-10.9C400.5,157.6,398.2,154.2,402.2,148.6"/>
	<path id="Fill-9" class="st2" d="M532.6,112.4c9.3,0,13.9-6.3,13.9-15s-4.6-14.7-13.5-14.7h-13.6v29.7H532.6z M492.6,68.1
		c0-5.5,2.9-8.4,8.4-8.4h37.1c21.3,0,35.7,15.6,35.7,37.7s-14.4,38-35.7,38h-18.7v25.4c0,5.5-2.9,8.4-8.4,8.4h-10
		c-5.5,0-8.4-2.9-8.4-8.4L492.6,68.1L492.6,68.1z"/>
	<path id="Fill-11" class="st2" d="M638.7,146.6c17.3,0,29.6-14.1,29.6-32.8c0-17.9-12.3-31.4-29.6-31.4s-29.6,13.5-29.6,31.4
		C609.1,132.5,621.3,146.6,638.7,146.6 M638.7,57.8c34,0,57.3,24.5,57.3,55.9c0,32.2-23.3,57.3-57.3,57.3s-57.3-25.1-57.3-57.3
		C581.4,82.4,604.6,57.8,638.7,57.8"/>
	<path id="Fill-13" class="st2" d="M749.9,109.3c8.6,0,13.9-4.8,13.9-13.5c0-5.5-1.4-9.7-6.4-11.7c-2.5-1.1-5.7-1.5-10.1-1.5h-9
		v26.7H749.9z M711.5,68.1c0-5.5,2.9-8.4,8.4-8.4h29.7c11.2,0,16.6,0.8,21.3,2.6c12.4,4.7,20.2,15.9,20.2,31.9
		c0,11.6-5.5,24.4-16.4,29.9v0.3c0,0,1.5,2,4.1,6.6l15.6,28.2c3.4,5.8,0.8,10.1-5.8,10.1H777c-4.6,0-7.7-1.8-10-6l-16.2-31h-12.6
		v28.5c0,5.5-2.9,8.4-8.4,8.4h-10c-5.5,0-8.4-2.9-8.4-8.4V68.1H711.5z"/>
	<path id="Fill-15" class="st2" d="M831,82.7h-24.8c-5.5,0-8.4-2.9-8.4-8.4v-6.1c0-5.5,2.9-8.4,8.4-8.4h76.5c5.5,0,8.4,2.9,8.4,8.4
		v6.1c0,5.5-2.9,8.4-8.4,8.4h-24.8v78.2c0,5.5-2.9,8.4-8.4,8.4h-10c-5.5,0-8.4-2.9-8.4-8.4L831,82.7L831,82.7z"/>
	<path id="Fill-17" class="st3" d="M300.5,145.9c-17.4,0-31.4-14.1-31.4-31.4c0-17.4,14.1-31.4,31.4-31.4s31.4,14.1,31.4,31.4
		S317.9,145.9,300.5,145.9 M198.3,145.9c-17.4,0-31.4-14.1-31.4-31.4c0-17.4,14.1-31.4,31.4-31.4s31.4,14.1,31.4,31.4
		S215.7,145.9,198.3,145.9 M133.5,100.6l-27.9,42.8c-2.2,3.4-5.9,5.2-9.6,5.2s-7.4-1.8-9.6-5.2l-27.8-42.8
		c-3.4-5.3-1.9-12.3,3.4-15.7c5.3-3.4,12.4-1.9,15.8,3.4l18.3,28l18.2-28c3.4-5.3,10.5-6.8,15.8-3.4
		C135.5,88.3,137,95.3,133.5,100.6 M300.5,43.7c-20.1,0-38.2,8.4-51.1,21.8c-12.9-13.4-31-21.8-51.1-21.8s-38.2,8.4-51.1,21.9
		c-12.9-13.5-31-21.9-51.1-21.9c-39.1,0-70.8,31.7-70.8,70.8s31.7,70.8,70.8,70.8c20.1,0,38.2-8.4,51.1-21.9
		c12.9,13.5,31,21.9,51.1,21.9s38.2-8.4,51.1-21.8c12.9,13.4,31,21.8,51.1,21.8c39.1,0,70.8-31.7,70.8-70.8S339.6,43.7,300.5,43.7"
		/>
	<path id="Fill-19" class="st0" d="M684.3,235.4c-0.9-3.8,0.9-6.1,4.8-6.1h7.1c3.3,0,5.3,1.6,6,4.9l8,39.7c0.9,4.4,0.9,7.5,0.9,7.5
		h0.2c0,0,0.1-3.1,1.2-7.5l9.8-39.8c0.8-3.2,2.8-4.8,6.1-4.8h4.3c3.3,0,5.3,1.6,6,4.8l9.6,39.8c1.1,4.4,1.2,7.5,1.2,7.5h0.2
		c0,0,0-3.1,0.9-7.5l8.7-39.8c0.7-3.2,2.7-4.8,6.1-4.8h6.8c3.9,0,5.7,2.3,4.8,6.1L761.5,296c-0.8,3.2-2.8,4.7-6.1,4.7h-9.7
		c-3.3,0-5.3-1.6-6.1-4.8l-7.8-31.2c-1.1-4.6-1.4-8.4-1.4-8.4h-0.2c0,0-0.3,3.8-1.4,8.4l-7.8,31.2c-0.8,3.2-2.8,4.8-6.1,4.8H705
		c-3.3,0-5.3-1.6-6.1-4.8L684.3,235.4z"/>
	<path id="Fill-21" class="st0" d="M816.4,285.9c11.3,0,19.3-9.2,19.3-21.4c0-11.7-8-20.5-19.3-20.5s-19.3,8.8-19.3,20.5
		C797.1,276.7,805.1,285.9,816.4,285.9 M816.4,228.1c22.2,0,37.3,16,37.3,36.4c0,21-15.2,37.3-37.3,37.3
		c-22.2,0-37.3-16.4-37.3-37.3C779,244,794.2,228.1,816.4,228.1"/>
	<path id="Fill-23" class="st0" d="M886.4,261.6c5.6,0,9.1-3.1,9.1-8.8c0-3.6-0.9-6.3-4.2-7.6c-1.6-0.7-3.7-1-6.6-1h-5.9v17.4H886.4
		z M861.3,234.8c0-3.6,1.9-5.5,5.5-5.5h19.4c7.3,0,10.8,0.5,13.9,1.7c8.1,3.1,13.2,10.4,13.2,20.8c0,7.6-3.6,15.9-10.7,19.5v0.2
		c0,0,1,1.3,2.7,4.3l10.2,18.4c2.2,3.8,0.5,6.6-3.8,6.6h-7.6c-3,0-5-1.2-6.5-3.9L887,276.6h-8.2v18.6c0,3.6-1.9,5.5-5.5,5.5h-6.5
		c-3.6,0-5.5-1.9-5.5-5.5V234.8z"/>
	<path id="Fill-25" class="st0" d="M922.8,234.8c0-3.6,1.9-5.5,5.5-5.5h6.5c3.6,0,5.5,1.9,5.5,5.5v50.9H964c3.6,0,5.5,1.9,5.5,5.5v4
		c0,3.6-1.9,5.5-5.5,5.5h-35.6c-3.6,0-5.5-1.9-5.5-5.5v-60.4H922.8z"/>
	<path id="Fill-27" class="st0" d="M998.8,285.7c12.1,0,19.5-7.2,19.5-20.9c0-13.6-7.7-20.6-19.5-20.6h-7.2v41.4h7.2V285.7z
		 M974.1,234.8c0-3.6,1.9-5.5,5.5-5.5h19.9c22.5,0,36.8,13.1,36.8,35.5s-14.4,35.8-36.8,35.8h-19.9c-3.6,0-5.5-1.9-5.5-5.5
		L974.1,234.8L974.1,234.8z"/>
</g>
<g class="st4">
	<path class="st5" d="M1067.8,291.5l2.7-4.4c1.9-3.1,4.4-3.3,7.5-1.4c2.7,1.5,6.2,3,10.2,3c6.5,0,10.2-3.2,10.2-7.1
		c0-5.6-5.6-7.9-13.3-7.9h-0.4c-3.2,0-4.8-1-6.2-3.8l-0.5-1c-1.2-2.3-0.7-4.8,1.3-7.1l6.5-7.9c3.4-4.1,6.2-6.7,6.2-6.7V247
		c0,0-2.3,0.5-6.8,0.5h-11.6c-3.6,0-5.5-1.9-5.5-5.5v-4c0-3.6,1.9-5.5,5.5-5.5h34.1c3.6,0,5.5,1.9,5.5,5.4v1.6
		c0,2.8-0.7,4.7-2.5,6.8l-12,13.8c10.6,2.3,17.3,10.7,17.3,20.7c0,12.2-8.6,24.4-26.5,24.4c-9.7,0-16.5-3.4-20.5-6.1
		C1066.2,297.1,1066,294.4,1067.8,291.5z"/>
</g>
</svg>
